<svg width="86" height="50" viewBox="0 0 86 50" fill="none" xmlns="http://www.w3.org/2000/svg">
<path d="M71.9374 3.90625C71.9374 3.4427 72.0748 2.98956 72.3324 2.60413C72.5899 2.21871 72.956 1.9183 73.3842 1.74091C73.8125 1.56352 74.2837 1.5171 74.7384 1.60754C75.193 1.69797 75.6106 1.92119 75.9384 2.24897C76.2662 2.57675 76.4894 2.99437 76.5798 3.44901C76.6703 3.90365 76.6239 4.3749 76.4465 4.80317C76.2691 5.23143 75.9687 5.59747 75.5832 5.85501C75.1978 6.11254 74.7447 6.25 74.2811 6.25C73.6595 6.25 73.0634 6.00307 72.6238 5.56353C72.1843 5.12399 71.9374 4.52785 71.9374 3.90625ZM68.0546 14.3027C69.4725 22.9453 68.9042 29.0996 66.3632 32.5957C65.7406 33.475 64.9426 34.2159 64.0196 34.7716C63.0965 35.3272 62.0683 35.6856 60.9999 35.8242V45.3125H64.1249C64.5393 45.3125 64.9367 45.4771 65.2297 45.7701C65.5228 46.0632 65.6874 46.4606 65.6874 46.875C65.6874 47.2894 65.5228 47.6868 65.2297 47.9799C64.9367 48.2729 64.5393 48.4375 64.1249 48.4375H54.7499C54.3355 48.4375 53.9381 48.2729 53.645 47.9799C53.352 47.6868 53.1874 47.2894 53.1874 46.875C53.1874 46.4606 53.352 46.0632 53.645 45.7701C53.9381 45.4771 54.3355 45.3125 54.7499 45.3125H57.8749V35.8242C56.8066 35.6849 55.7787 35.3262 54.8557 34.7706C53.9328 34.215 53.1347 33.4745 52.5116 32.5957C49.9725 29.0996 49.4042 22.9453 50.8221 14.3027C51.4815 10.3575 52.4087 6.46178 53.5975 2.64258C53.6994 2.32863 53.8982 2.05503 54.1652 1.86099C54.4322 1.66696 54.7538 1.56247 55.0839 1.5625H63.7928C64.1229 1.56247 64.4445 1.66696 64.7115 1.86099C64.9786 2.05503 65.1773 2.32863 65.2792 2.64258C66.468 6.46178 67.3953 10.3575 68.0546 14.3027ZM54.3202 12.5H64.5546C63.9686 9.45703 63.2421 6.67774 62.6444 4.6875H56.2323C55.6346 6.67774 54.912 9.45703 54.3202 12.5ZM65.1014 15.625H53.7733C52.8964 21.4844 52.7694 27.6445 55.0331 30.7598C56.0448 32.1406 57.4843 32.8125 59.4374 32.8125C61.3905 32.8125 62.8319 32.1406 63.8358 30.7598C66.0975 27.6445 65.9725 21.4844 65.1014 15.625ZM78.9686 7.8125C78.5051 7.8125 78.0519 7.94996 77.6665 8.20749C77.2811 8.46503 76.9807 8.83107 76.8033 9.25934C76.6259 9.6876 76.5795 10.1589 76.6699 10.6135C76.7603 11.0681 76.9836 11.4858 77.3113 11.8135C77.6391 12.1413 78.0567 12.3645 78.5114 12.455C78.966 12.5454 79.4373 12.499 79.8655 12.3216C80.2938 12.1442 80.6599 11.8438 80.9174 11.4584C81.1749 11.0729 81.3124 10.6198 81.3124 10.1563C81.3124 9.53465 81.0655 8.93851 80.6259 8.49897C80.1864 8.05943 79.5902 7.8125 78.9686 7.8125ZM74.2811 17.1875C73.8176 17.1875 73.3644 17.325 72.979 17.5825C72.5936 17.84 72.2932 18.2061 72.1158 18.6343C71.9384 19.0626 71.892 19.5339 71.9824 19.9885C72.0728 20.4431 72.2961 20.8608 72.6238 21.1885C72.9516 21.5163 73.3692 21.7395 73.8239 21.83C74.2785 21.9204 74.7498 21.874 75.178 21.6966C75.6063 21.5192 75.9724 21.2188 76.2299 20.8334C76.4874 20.4479 76.6249 19.9948 76.6249 19.5313C76.6249 18.9097 76.378 18.3135 75.9384 17.874C75.4989 17.4344 74.9027 17.1875 74.2811 17.1875Z" fill="#FF204E"/>
<path d="M43.75 20.3125H42.1152C41.7226 16.0447 39.7497 12.0775 36.5834 9.18911C33.4171 6.3007 29.2858 4.69946 25 4.69946C20.7142 4.69946 16.5829 6.3007 13.4166 9.18911C10.2503 12.0775 8.27737 16.0447 7.88477 20.3125H6.25C5.8356 20.3125 5.43817 20.4771 5.14515 20.7702C4.85212 21.0632 4.6875 21.4606 4.6875 21.875C4.69437 25.5909 5.71698 29.2341 7.64475 32.4108C9.57252 35.5875 12.3321 38.1767 15.625 39.8984V40.625C15.625 41.4538 15.9542 42.2487 16.5403 42.8347C17.1263 43.4208 17.9212 43.75 18.75 43.75H31.25C32.0788 43.75 32.8737 43.4208 33.4597 42.8347C34.0458 42.2487 34.375 41.4538 34.375 40.625V39.8984C37.6679 38.1767 40.4275 35.5875 42.3553 32.4108C44.283 29.2341 45.3056 25.5909 45.3125 21.875C45.3125 21.4606 45.1479 21.0632 44.8549 20.7702C44.5618 20.4771 44.1644 20.3125 43.75 20.3125ZM33.8828 10.9824C34.2409 11.2754 34.584 11.5846 34.9121 11.9102C30.7527 13.3734 27.3154 16.3805 25.3125 20.3086H19.5508C20.5274 17.5712 22.3253 15.202 24.6989 13.5247C27.0725 11.8474 29.9061 10.9439 32.8125 10.9375C33.1699 10.9375 33.5273 10.9551 33.8828 10.9824ZM28.9297 20.3125C30.8241 17.4705 33.69 15.417 36.9902 14.5371C38.0693 16.2923 38.7463 18.2646 38.9727 20.3125H28.9297ZM25 7.81251C26.2538 7.81334 27.5019 7.98216 28.7109 8.31446C25.7665 9.04488 23.0666 10.5386 20.8834 12.645C18.7001 14.7514 17.1108 17.3961 16.2754 20.3125H11.0273C11.4149 16.8767 13.0534 13.7037 15.6303 11.3983C18.2072 9.093 21.5424 7.81662 25 7.81251Z" fill="#FF204E"/>
</svg>
