<svg width="75" height="65" viewBox="0 0 75 65" fill="none" xmlns="http://www.w3.org/2000/svg">
<path d="M67.3828 21.7969C66.9642 21.5093 66.4816 21.3286 65.977 21.2704C65.4725 21.2122 64.9614 21.2783 64.4883 21.4629C61.748 22.5293 56.2148 24.3184 50 24.3184C43.7852 24.3184 38.25 22.5293 35.5059 21.4629C35.0324 21.2791 34.5213 21.2135 34.0167 21.2717C33.5122 21.3299 33.0294 21.5103 32.6103 21.7971C32.1911 22.0839 31.8482 22.4685 31.6112 22.9177C31.3741 23.3669 31.2502 23.8671 31.25 24.375V35.2676C31.25 42.2676 33.1348 48.8711 36.5586 53.8574C40.1055 59.0254 44.8789 61.8652 50 61.8652C55.1211 61.8652 59.8945 59.0195 63.4414 53.8574C66.8652 48.875 68.75 42.2715 68.75 35.2715V24.375C68.7491 23.8665 68.6241 23.3658 68.3858 22.9166C68.1476 22.4673 67.8033 22.0829 67.3828 21.7969ZM40.2344 41.041C39.958 41.3518 39.5695 41.5401 39.1543 41.5645C38.7392 41.5888 38.3313 41.4473 38.0205 41.1709C37.7097 40.8946 37.5214 40.5061 37.4971 40.0909C37.4727 39.6757 37.6143 39.2678 37.8906 38.957C39.0137 37.7109 41.0508 36.875 42.9688 36.875C44.8867 36.875 46.9238 37.7109 48.0469 38.957C48.3232 39.2678 48.4648 39.6757 48.4404 40.0909C48.4161 40.5061 48.2278 40.8946 47.917 41.1709C47.7631 41.3077 47.5838 41.4129 47.3892 41.4805C47.1947 41.548 46.9887 41.5765 46.7832 41.5645C46.368 41.5401 45.9795 41.3518 45.7031 41.041C45.1797 40.4551 43.9746 40 42.9688 40C41.9629 40 40.75 40.457 40.2344 41.041ZM57.9082 50.3887C56.9383 51.5394 55.7288 52.4644 54.3642 53.099C52.9995 53.7335 51.5128 54.0623 50.0078 54.0623C48.5029 54.0623 47.0161 53.7335 45.6515 53.099C44.2868 52.4644 43.0773 51.5394 42.1074 50.3887C41.9594 50.2354 41.8443 50.0535 41.7692 49.8542C41.6941 49.6548 41.6605 49.4422 41.6706 49.2294C41.6807 49.0166 41.7341 48.8081 41.8277 48.6167C41.9213 48.4254 42.0531 48.2551 42.2149 48.1166C42.3767 47.978 42.5651 47.8739 42.7686 47.8108C42.9721 47.7477 43.1863 47.7269 43.3982 47.7497C43.61 47.7724 43.8149 47.8382 44.0004 47.9431C44.1858 48.0479 44.3479 48.1896 44.4766 48.3594C45.1528 49.1667 45.9979 49.816 46.9522 50.2615C47.9065 50.7071 48.9468 50.9379 50 50.9379C51.0532 50.9379 52.0935 50.7071 53.0478 50.2615C54.0021 49.816 54.8472 49.1667 55.5234 48.3594C55.7925 48.0442 56.1758 47.8488 56.589 47.8162C57.0022 47.7836 57.4114 47.9165 57.7266 48.1856C58.0418 48.4547 58.2372 48.838 58.2698 49.2511C58.3024 49.6643 58.1695 50.0735 57.9004 50.3887H57.9082ZM61.9805 41.1719C61.8275 41.3088 61.6491 41.4142 61.4553 41.4821C61.2616 41.55 61.0564 41.5791 60.8515 41.5677C60.6465 41.5562 60.4458 41.5045 60.2608 41.4155C60.0759 41.3265 59.9102 41.2019 59.7734 41.0488C59.25 40.4629 58.0449 40.0078 57.0391 40.0078C56.0332 40.0078 54.8203 40.4649 54.3047 41.0488C54.1673 41.2032 54.0009 41.3291 53.8149 41.4192C53.629 41.5093 53.427 41.5618 53.2207 41.5739C53.0144 41.586 52.8078 41.5573 52.6126 41.4895C52.4174 41.4217 52.2374 41.3161 52.083 41.1787C51.9286 41.0414 51.8028 40.875 51.7127 40.689C51.6226 40.503 51.57 40.3011 51.5579 40.0948C51.5459 39.8885 51.5746 39.6818 51.6424 39.4866C51.7102 39.2914 51.8158 39.1114 51.9531 38.957C53.0684 37.7109 55.1055 36.875 57.0312 36.875C58.957 36.875 60.9863 37.7109 62.1094 38.957C62.2471 39.1106 62.3531 39.2898 62.4212 39.4845C62.4893 39.6792 62.5182 39.8854 62.5062 40.0913C62.4943 40.2972 62.4416 40.4987 62.3514 40.6842C62.2612 40.8696 62.1351 41.0354 61.9805 41.1719Z" fill="#FF204E"/>
<path d="M30.9883 36.8027C30.7588 37.1477 30.4016 37.3873 29.9955 37.469C29.5893 37.5507 29.1673 37.4677 28.8223 37.2383C27.5527 36.3945 26.5625 35.9375 25 35.9375C23.4375 35.9375 22.4473 36.3945 21.1777 37.2383C20.8327 37.4592 20.4147 37.5358 20.0138 37.4515C19.6129 37.3672 19.2611 37.1289 19.0342 36.7878C18.8073 36.4467 18.7235 36.0301 18.8007 35.6278C18.878 35.2254 19.1102 34.8695 19.4473 34.6367C21.0938 33.541 22.668 32.8125 25 32.8125C27.332 32.8125 28.9062 33.541 30.5527 34.6367C30.8977 34.8662 31.1373 35.2234 31.219 35.6295C31.3007 36.0357 31.2177 36.4577 30.9883 36.8027ZM43.75 9.375V20.2676C43.75 27.2676 41.8652 33.8711 38.4414 38.8574C34.8945 44.0254 30.1211 46.8652 25 46.8652C19.8789 46.8652 15.1055 44.0195 11.5586 38.8574C8.13477 33.875 6.25 27.2715 6.25 20.2715V9.375C6.25018 8.86711 6.37415 8.36692 6.61117 7.91773C6.84819 7.46854 7.19112 7.08388 7.61028 6.79707C8.02943 6.51026 8.51218 6.32994 9.01672 6.27171C9.52126 6.21348 10.0324 6.2791 10.5059 6.46289C13.25 7.5293 18.7852 9.31836 25 9.31836C31.2148 9.31836 36.748 7.5293 39.4941 6.46289C39.9676 6.2791 40.4787 6.21348 40.9833 6.27171C41.4878 6.32994 41.9706 6.51026 42.3897 6.79707C42.8089 7.08388 43.1518 7.46854 43.3888 7.91773C43.6259 8.36692 43.7498 8.86711 43.75 9.375ZM40.625 9.375C37.6758 10.5254 31.7246 12.4473 25 12.4473C18.2754 12.4473 12.3242 10.5215 9.375 9.375V20.2715C9.375 26.6465 11.0664 32.6211 14.1348 37.0938C17.082 41.3867 20.9395 43.75 25 43.75C29.0605 43.75 32.918 41.3867 35.8652 37.0938C38.9336 32.6172 40.625 26.6465 40.625 20.2715V9.375ZM36.9805 22.2656C36.8276 22.1286 36.6493 22.023 36.4556 21.955C36.262 21.8869 36.0568 21.8576 35.8519 21.8689C35.6469 21.8801 35.4462 21.9317 35.2611 22.0205C35.0761 22.1094 34.9104 22.2338 34.7734 22.3867C34.25 22.9727 33.0449 23.4297 32.0391 23.4297C31.0332 23.4297 29.8203 22.9707 29.3047 22.3867C29.1673 22.2323 29.0009 22.1065 28.8149 22.0164C28.629 21.9263 28.427 21.8737 28.2207 21.8617C28.0144 21.8496 27.8078 21.8783 27.6126 21.9461C27.4174 22.0139 27.2374 22.1195 27.083 22.2568C26.9286 22.3942 26.8028 22.5606 26.7127 22.7466C26.6226 22.9326 26.57 23.1345 26.5579 23.3408C26.5459 23.5471 26.5746 23.7537 26.6424 23.9489C26.7102 24.1442 26.8158 24.3241 26.9531 24.4785C28.0684 25.7246 30.1055 26.5625 32.0312 26.5625C33.957 26.5625 35.9863 25.7246 37.1094 24.4785C37.2468 24.325 37.3526 24.1459 37.4205 23.9514C37.4884 23.7569 37.5172 23.5509 37.5053 23.3453C37.4933 23.1396 37.4408 22.9383 37.3507 22.753C37.2606 22.5677 37.1348 22.4021 36.9805 22.2656ZM23.0469 24.4785C23.1837 24.3246 23.2889 24.1453 23.3564 23.9507C23.424 23.7562 23.4525 23.5503 23.4404 23.3447C23.4284 23.1391 23.3759 22.9379 23.2861 22.7526C23.1963 22.5673 23.0709 22.4015 22.917 22.2646C22.7631 22.1278 22.5838 22.0226 22.3892 21.9551C22.1947 21.8876 21.9887 21.859 21.7832 21.8711C21.5776 21.8831 21.3764 21.9356 21.1911 22.0254C21.0058 22.1152 20.84 22.2406 20.7031 22.3945C20.1797 22.9805 18.9746 23.4375 17.9688 23.4375C16.9629 23.4375 15.75 22.9785 15.2344 22.3945C15.0975 22.2406 14.9317 22.1152 14.7464 22.0254C14.5611 21.9356 14.3599 21.8831 14.1543 21.8711C13.9488 21.859 13.7428 21.8876 13.5483 21.9551C13.3537 22.0226 13.1744 22.1278 13.0205 22.2646C12.8666 22.4015 12.7412 22.5673 12.6514 22.7526C12.5616 22.9379 12.5091 23.1391 12.4971 23.3447C12.485 23.5503 12.5135 23.7562 12.5811 23.9507C12.6486 24.1453 12.7538 24.3246 12.8906 24.4785C14.0137 25.7246 16.0508 26.5625 17.9688 26.5625C19.8867 26.5625 21.9238 25.7246 23.0469 24.4785Z" fill="#FF204E"/>
</svg>
